# xmcd
#
# Track frame offsets: 
#        150
#        16328
#        33478
#        50247
#        68621
#        83169
#        99755
#        116907
#        133665
#        152109
#        167491
#        183832
#        199591
#        216369
#        230127
#        244387
#        259111
#        274014
#        291883
#        308879
#
# Disc length: 4307 seconds
#
# Revision: 2
# Processed by: cddbd v1.5.2PL0 Copyright (c) Steve Scherf et al.
# Submitted via: ExactAudioCopy v1.0b3
#
DISCID=2210d114
DTITLE=Die Paldauer - Plötzlich war’s Liebe CD1
DYEAR=2008
DGENRE=Pop
TTITLE0=Plötzlich war’s Liebe
TTITLE1=Ich muss dich wiedersehen
TTITLE2=Schaff mir die Hölle nicht auf Erden
TTITLE3=Laguna Blue
TTITLE4=Worauf du dich verlassen kannst
TTITLE5=Tanz mit mir Corina
TTITLE6=Ich erfüll dir all deine Träume
TTITLE7=Am aller aller liebsten
TTITLE8=Zwei Herzen, ein Herzschlag
TTITLE9=Ich vermisse dich
TTITLE10=Auf Freunde kommt es an
TTITLE11=Mitten ins Herz
TTITLE12=Mit Tränen in den Augen
TTITLE13=Ich bin da, um dich zu lieben
TTITLE14=Wahres Glück geht nie vorbei
TTITLE15=Das ewige Spiel mit dem Feuer
TTITLE16=Hand auf's Herz
TTITLE17=Alles sinnlos ohne dich
TTITLE18=Heute hab ich Glück
TTITLE19=Sandy River
EXTD=YEAR: 2008
EXTT0=
EXTT1=
EXTT2=
EXTT3=
EXTT4=
EXTT5=
EXTT6=
EXTT7=
EXTT8=
EXTT9=
EXTT10=
EXTT11=
EXTT12=
EXTT13=
EXTT14=
EXTT15=
EXTT16=
EXTT17=
EXTT18=
EXTT19=
PLAYORDER=
